<svg width="24" height="24" viewBox="0 0 24 24" fill="none" xmlns="http://www.w3.org/2000/svg">
<path d="M5.10547 21.9297C4.32422 21.9297 3.60482 21.7344 2.94727 21.3438C2.29622 20.9531 1.77539 20.429 1.38477 19.7715C0.994141 19.1204 0.798828 18.4043 0.798828 17.623C0.798828 16.8353 0.994141 16.1159 1.38477 15.4648C1.77539 14.8138 2.29622 14.293 2.94727 13.9023C3.59831 13.5117 4.31771 13.3164 5.10547 13.3164C5.89323 13.3164 6.60938 13.5117 7.25391 13.9023C7.90495 14.2865 8.42578 14.8073 8.81641 15.4648C9.21354 16.1159 9.41211 16.8353 9.41211 17.623C9.41211 18.4043 9.21354 19.1204 8.81641 19.7715C8.42578 20.429 7.90495 20.9531 7.25391 21.3438C6.60938 21.7344 5.89323 21.9297 5.10547 21.9297ZM5.10547 20.2695C5.58073 20.2695 6.02018 20.1491 6.42383 19.9082C6.82747 19.6673 7.14974 19.3451 7.39062 18.9414C7.63151 18.5378 7.75195 18.0983 7.75195 17.623C7.75195 17.1413 7.63151 16.7018 7.39062 16.3047C7.14974 15.901 6.82747 15.5788 6.42383 15.3379C6.02018 15.097 5.58073 14.9766 5.10547 14.9766C4.63021 14.9766 4.19076 15.097 3.78711 15.3379C3.38346 15.5788 3.0612 15.901 2.82031 16.3047C2.57943 16.7018 2.45898 17.1413 2.45898 17.623C2.45898 18.0983 2.57943 18.5378 2.82031 18.9414C3.0612 19.3451 3.38346 19.6673 3.78711 19.9082C4.19076 20.1491 4.63021 20.2695 5.10547 20.2695ZM12.5664 7.25195C12.306 7.25195 12.0846 7.16081 11.9023 6.97852C11.7266 6.78971 11.6387 6.56836 11.6387 6.31445C11.6387 6.06055 11.7266 5.8457 11.9023 5.66992C12.0846 5.48763 12.306 5.39648 12.5664 5.39648H22.2734C22.5339 5.39648 22.752 5.48763 22.9277 5.66992C23.11 5.8457 23.2012 6.06055 23.2012 6.31445C23.2012 6.57487 23.11 6.79622 22.9277 6.97852C22.752 7.16081 22.5339 7.25195 22.2734 7.25195H12.5664ZM12.5664 18.5508C12.306 18.5508 12.0846 18.4596 11.9023 18.2773C11.7266 18.0885 11.6387 17.8704 11.6387 17.623C11.6387 17.3626 11.7266 17.1445 11.9023 16.9688C12.0846 16.7865 12.306 16.6953 12.5664 16.6953H22.2734C22.5339 16.6953 22.752 16.7865 22.9277 16.9688C23.11 17.1445 23.2012 17.3626 23.2012 17.623C23.2012 17.877 23.11 18.0951 22.9277 18.2773C22.752 18.4596 22.5339 18.5508 22.2734 18.5508H12.5664ZM5.10547 10.6211C4.32422 10.6211 3.60482 10.4258 2.94727 10.0352C2.29622 9.64453 1.77539 9.1237 1.38477 8.47266C0.994141 7.8151 0.798828 7.0957 0.798828 6.31445C0.798828 5.52669 0.994141 4.80729 1.38477 4.15625C1.77539 3.50521 2.29622 2.98438 2.94727 2.59375C3.59831 2.20312 4.31771 2.00781 5.10547 2.00781C5.89323 2.00781 6.60938 2.20312 7.25391 2.59375C7.90495 2.98438 8.42578 3.50521 8.81641 4.15625C9.21354 4.80729 9.41211 5.52669 9.41211 6.31445C9.41211 7.0957 9.21354 7.8151 8.81641 8.47266C8.42578 9.1237 7.90495 9.64453 7.25391 10.0352C6.60938 10.4258 5.89323 10.6211 5.10547 10.6211ZM4.58789 8.62891C4.81576 8.62891 4.99479 8.53125 5.125 8.33594L7.20508 5.10352C7.29622 4.9668 7.3418 4.83008 7.3418 4.69336C7.3418 4.55664 7.28646 4.43945 7.17578 4.3418C7.0651 4.24414 6.9349 4.19531 6.78516 4.19531C6.59635 4.19531 6.4401 4.29297 6.31641 4.48828L4.57812 7.27148L3.82617 6.33398C3.75456 6.24935 3.68294 6.1875 3.61133 6.14844C3.54622 6.10938 3.46159 6.08984 3.35742 6.08984C3.21419 6.08984 3.09049 6.14193 2.98633 6.24609C2.88867 6.35026 2.83984 6.48047 2.83984 6.63672C2.83984 6.78646 2.88542 6.91992 2.97656 7.03711L4.07031 8.3457C4.14193 8.43685 4.22005 8.50846 4.30469 8.56055C4.38932 8.60612 4.48372 8.62891 4.58789 8.62891Z" fill="#0077B3"/>
</svg>
