<svg width="24" height="24" viewBox="0 0 24 24" fill="none" xmlns="http://www.w3.org/2000/svg">
<path d="M6.86328 21.6367C5.9388 21.6367 5.22917 21.3991 4.73438 20.9238C4.24609 20.4486 4.00195 19.7487 4.00195 18.8242V12.8281H3.93359C3.50391 12.737 3.17513 12.5254 2.94727 12.1934C2.7194 11.8613 2.60547 11.4479 2.60547 10.9531V8.38477C2.60547 7.79232 2.77148 7.32031 3.10352 6.96875C3.43555 6.61719 3.88802 6.44141 4.46094 6.44141H6.43359C6.17318 6.1875 5.9681 5.88802 5.81836 5.54297C5.67513 5.19141 5.60352 4.8138 5.60352 4.41016C5.60352 3.77865 5.75326 3.21875 6.05273 2.73047C6.35872 2.24219 6.76562 1.86133 7.27344 1.58789C7.78776 1.30794 8.36068 1.16797 8.99219 1.16797C9.68229 1.16797 10.291 1.34701 10.8184 1.70508C11.3522 2.06315 11.7428 2.57096 11.9902 3.22852C12.2376 2.57096 12.6283 2.06315 13.1621 1.70508C13.696 1.34701 14.3047 1.16797 14.9883 1.16797C15.6198 1.16797 16.1895 1.30794 16.6973 1.58789C17.2116 1.86133 17.6185 2.24219 17.918 2.73047C18.224 3.21875 18.377 3.77865 18.377 4.41016C18.377 4.8138 18.3053 5.19141 18.1621 5.54297C18.0189 5.88802 17.8171 6.1875 17.5566 6.44141H19.5293C20.1283 6.44141 20.5872 6.61719 20.9062 6.96875C21.2253 7.32031 21.3848 7.79232 21.3848 8.38477V10.9531C21.3848 11.4479 21.2676 11.8613 21.0332 12.1934C20.8053 12.5254 20.4766 12.737 20.0469 12.8281H19.9785V18.8242C19.9785 19.7487 19.7311 20.4486 19.2363 20.9238C18.748 21.3991 18.0449 21.6367 17.127 21.6367H6.86328ZM11.1211 20.1719V12.8965H5.57422V18.9023C5.57422 19.306 5.6849 19.6185 5.90625 19.8398C6.1276 20.0612 6.4401 20.1719 6.84375 20.1719H11.1211ZM12.8594 20.1719H17.1367C17.5469 20.1719 17.8594 20.0612 18.0742 19.8398C18.2956 19.6185 18.4062 19.306 18.4062 18.9023V12.8965H12.8594V20.1719ZM11.1211 11.4219V7.91602H4.86133C4.61393 7.91602 4.43815 7.9681 4.33398 8.07227C4.22982 8.17643 4.17773 8.35221 4.17773 8.59961V10.7285C4.17773 10.9759 4.22982 11.1549 4.33398 11.2656C4.43815 11.3698 4.61393 11.4219 4.86133 11.4219H11.1211ZM12.8594 11.4219H19.1387C19.3796 11.4219 19.5521 11.3698 19.6562 11.2656C19.7604 11.1549 19.8125 10.9759 19.8125 10.7285V8.59961C19.8125 8.35221 19.7604 8.17643 19.6562 8.07227C19.5521 7.9681 19.3796 7.91602 19.1387 7.91602H12.8594V11.4219ZM11.1895 6.44141V5.12305C11.1895 4.40039 10.9844 3.83398 10.5742 3.42383C10.1706 3.00716 9.67578 2.79883 9.08984 2.79883C8.55599 2.79883 8.11328 2.94857 7.76172 3.24805C7.41016 3.54102 7.23438 3.95768 7.23438 4.49805C7.23438 5.03841 7.44596 5.4974 7.86914 5.875C8.29883 6.2526 8.89779 6.44141 9.66602 6.44141H11.1895ZM12.791 6.44141H14.3145C15.0827 6.44141 15.6784 6.2526 16.1016 5.875C16.5312 5.4974 16.7461 5.03841 16.7461 4.49805C16.7461 3.95768 16.5703 3.54102 16.2188 3.24805C15.8737 2.94857 15.431 2.79883 14.8906 2.79883C14.3112 2.79883 13.8164 3.00716 13.4062 3.42383C12.9961 3.83398 12.791 4.40039 12.791 5.12305V6.44141Z" fill="#0077B3"/>
</svg>
