<svg width="24" height="24" viewBox="0 0 24 24" fill="none" xmlns="http://www.w3.org/2000/svg">
<path d="M0.896484 19.4688V11.002C0.896484 10.4225 1.06901 9.97331 1.41406 9.6543C1.76562 9.32878 2.25065 9.16602 2.86914 9.16602H5.20312V4.50781C5.20312 3.4987 5.45703 2.74349 5.96484 2.24219C6.47917 1.73438 7.2474 1.48047 8.26953 1.48047H20.0371C21.0592 1.48047 21.8242 1.73438 22.332 2.24219C22.8464 2.74349 23.1035 3.4987 23.1035 4.50781V19.4004C23.1035 20.403 22.8464 21.1549 22.332 21.6562C21.8242 22.1641 21.0592 22.418 20.0371 22.418H3.8457C2.85612 22.418 2.11719 22.1706 1.62891 21.6758C1.14062 21.181 0.896484 20.4453 0.896484 19.4688ZM2.46875 19.4688C2.46875 19.8594 2.59896 20.1849 2.85938 20.4453C3.1263 20.7122 3.45508 20.8457 3.8457 20.8457C4.22331 20.8457 4.54232 20.7155 4.80273 20.4551C5.06966 20.2012 5.20312 19.8724 5.20312 19.4688V10.7383H3.04492C2.86263 10.7383 2.7194 10.7904 2.61523 10.8945C2.51758 10.9922 2.46875 11.1289 2.46875 11.3047V19.4688ZM6.44336 20.8457H20.0078C20.4961 20.8457 20.8704 20.7155 21.1309 20.4551C21.3978 20.2012 21.5312 19.8203 21.5312 19.3125V4.5957C21.5312 4.08789 21.3978 3.70378 21.1309 3.44336C20.8704 3.18294 20.4961 3.05273 20.0078 3.05273H8.29883C7.81055 3.05273 7.43294 3.18294 7.16602 3.44336C6.9056 3.70378 6.77539 4.08789 6.77539 4.5957V19.3711C6.77539 19.9245 6.66471 20.416 6.44336 20.8457ZM9.31445 7.30078C9.13867 7.30078 8.99219 7.24219 8.875 7.125C8.75781 7.0013 8.69922 6.85482 8.69922 6.68555C8.69922 6.52279 8.75781 6.38607 8.875 6.27539C8.99219 6.1582 9.13867 6.09961 9.31445 6.09961H19.0117C19.181 6.09961 19.3242 6.1582 19.4414 6.27539C19.5586 6.38607 19.6172 6.52279 19.6172 6.68555C19.6172 6.85482 19.5586 7.0013 19.4414 7.125C19.3242 7.24219 19.181 7.30078 19.0117 7.30078H9.31445ZM9.31445 10.7383C9.13867 10.7383 8.99219 10.6829 8.875 10.5723C8.75781 10.4551 8.69922 10.3118 8.69922 10.1426C8.69922 9.97331 8.75781 9.83008 8.875 9.71289C8.99219 9.5957 9.13867 9.53711 9.31445 9.53711H19.0117C19.181 9.53711 19.3242 9.5957 19.4414 9.71289C19.5586 9.83008 19.6172 9.97331 19.6172 10.1426C19.6172 10.3118 19.5586 10.4551 19.4414 10.5723C19.3242 10.6829 19.181 10.7383 19.0117 10.7383H9.31445ZM9.89062 17.7012C9.51302 17.7012 9.2168 17.597 9.00195 17.3887C8.79362 17.1738 8.68945 16.8809 8.68945 16.5098V14.1855C8.68945 13.8079 8.79362 13.515 9.00195 13.3066C9.2168 13.0918 9.51302 12.9844 9.89062 12.9844H12.4199C12.791 12.9844 13.0807 13.0918 13.2891 13.3066C13.5039 13.515 13.6113 13.8079 13.6113 14.1855V16.5098C13.6113 16.8809 13.5039 17.1738 13.2891 17.3887C13.0807 17.597 12.791 17.7012 12.4199 17.7012H9.89062ZM15.3691 14.1855C15.1934 14.1855 15.0469 14.1302 14.9297 14.0195C14.819 13.9023 14.7637 13.7624 14.7637 13.5996C14.7637 13.4238 14.819 13.2773 14.9297 13.1602C15.0469 13.043 15.1934 12.9844 15.3691 12.9844H19.002C19.1777 12.9844 19.321 13.043 19.4316 13.1602C19.5488 13.2773 19.6074 13.4238 19.6074 13.5996C19.6074 13.7624 19.5488 13.9023 19.4316 14.0195C19.321 14.1302 19.1777 14.1855 19.002 14.1855H15.3691ZM15.3691 17.7012C15.1934 17.7012 15.0469 17.6458 14.9297 17.5352C14.819 17.418 14.7637 17.278 14.7637 17.1152C14.7637 16.9395 14.819 16.793 14.9297 16.6758C15.0469 16.5586 15.1934 16.5 15.3691 16.5H19.002C19.1777 16.5 19.321 16.5586 19.4316 16.6758C19.5488 16.793 19.6074 16.9395 19.6074 17.1152C19.6074 17.278 19.5488 17.418 19.4316 17.5352C19.321 17.6458 19.1777 17.7012 19.002 17.7012H15.3691Z" fill="#0077B3"/>
</svg>
